<?xml version="1.0" standalone="no"?>
<!DOCTYPE svg PUBLIC "-//W3C//DTD SVG 20010904//EN"
 "http://www.w3.org/TR/2001/REC-SVG-20010904/DTD/svg10.dtd">
<svg version="1.0" xmlns="http://www.w3.org/2000/svg"
 width="512.000000pt" height="512.000000pt" viewBox="0 0 512.000000 512.000000"
 preserveAspectRatio="xMidYMid meet">
<metadata>
Created by potrace 1.14, written by Peter Selinger 2001-2017
</metadata>
<g transform="translate(0.000000,512.000000) scale(0.100000,-0.100000)"
fill="#000000" stroke="none">
<path d="M3233 3160 c-88 -21 -223 -148 -339 -320 -39 -58 -75 -104 -80 -103
-181 34 -625 47 -824 24 -161 -19 -377 -67 -408 -91 -87 -68 -228 -267 -327
-461 l-64 -126 232 -6 c363 -11 480 -9 473 6 -66 159 -39 316 74 421 76 71
146 99 255 104 74 3 100 0 148 -18 73 -27 149 -100 185 -177 24 -52 27 -70 27
-163 0 -87 -4 -112 -21 -146 l-21 -41 161 -7 c89 -3 362 -9 609 -12 l447 -7
-26 57 c-34 74 -43 181 -21 257 45 154 173 246 357 256 71 4 95 1 141 -16 174
-66 261 -270 200 -470 -12 -38 -26 -73 -31 -76 -27 -17 -2 -25 78 -25 102 0
113 7 150 95 56 135 79 308 51 382 -23 60 -96 112 -217 154 -32 11 -84 44
-130 80 -177 144 -468 306 -676 378 -148 52 -313 73 -403 51z m208 -124 c91
-20 201 -78 261 -137 54 -54 98 -139 105 -204 l5 -41 -163 -20 c-207 -24 -514
-26 -605 -3 l-62 16 -46 -77 c-53 -86 -120 -236 -137 -304 -13 -51 -35 -78
-44 -54 -10 26 54 209 121 343 87 177 257 407 341 462 49 33 128 39 224 19z"/>
<path d="M3186 2899 c-81 -86 -176 -205 -176 -220 0 -18 398 -9 555 11 83 11
153 20 158 20 16 0 6 38 -21 81 -40 62 -94 106 -181 148 -65 31 -87 36 -166
39 l-91 4 -78 -83z"/>
<path d="M2720 3149 l-335 -9 -70 -34 c-83 -42 -177 -111 -276 -204 l-71 -67
278 0 c241 0 456 -13 515 -31 10 -3 31 19 64 68 27 40 97 121 156 181 59 59
99 106 90 105 -9 0 -167 -5 -351 -9z"/>
<path d="M4719 2913 l-35 -128 104 -3 c58 -1 106 -1 107 0 1 2 5 43 8 91 l5
88 -72 37 c-39 20 -74 38 -77 40 -3 1 -21 -55 -40 -125z"/>
<path d="M4141 2905 l111 -75 192 0 193 0 22 61 c13 33 20 63 17 66 -5 5 -410
21 -564 22 l-82 1 111 -75z"/>
<path d="M1220 2799 c-165 -9 -373 -32 -505 -55 l-90 -16 -62 -64 c-34 -35
-91 -108 -127 -161 -63 -96 -199 -361 -212 -415 l-6 -28 145 0 145 0 67 128
c92 177 201 337 278 409 59 54 73 62 148 83 120 32 281 57 459 69 152 11 306
36 324 53 12 10 -363 8 -564 -3z"/>
<path d="M4526 2721 c22 -21 47 -40 55 -43 11 -4 12 -9 2 -26 -10 -17 -9 -22
12 -36 13 -9 28 -16 32 -15 11 0 86 99 80 105 -2 3 -27 7 -55 11 -38 4 -52 10
-55 24 -4 16 -15 19 -59 19 l-53 -1 41 -38z"/>
<path d="M1375 2693 c-143 -19 -316 -56 -385 -82 -30 -11 -72 -34 -92 -51 -46
-38 -128 -160 -224 -334 l-73 -131 87 -6 c48 -4 164 -7 257 -8 l170 0 62 127
c76 154 176 309 272 420 49 56 66 82 54 81 -10 -1 -67 -8 -128 -16z"/>
<path d="M2165 2566 c-148 -47 -233 -144 -243 -277 -9 -122 43 -232 134 -285
48 -28 137 -54 190 -54 100 0 210 75 261 178 24 48 28 69 28 137 -1 132 -59
230 -167 284 -68 34 -132 40 -203 17z"/>
<path d="M4005 2566 c-111 -35 -200 -114 -230 -205 -37 -112 1 -251 91 -330
79 -69 198 -96 300 -66 48 14 69 27 115 74 68 70 93 133 93 237 -1 123 -60
220 -166 273 -68 34 -132 40 -203 17z"/>
</g>
</svg>
