<svg xml:space="preserve" viewBox="0 0 32 32">
  <g fill="none" stroke="#263238" stroke-linecap="round" stroke-linejoin="round" stroke-miterlimit="10">
    <path d="M12.5 27.5v2a1 1 0 0 1-1 1h-2M29.5 27.5v2a1 1 0 0 1-1 1h-1a1 1 0 0 1-1-1v-2M30.5 27.5h-19M11.496 20.926c1.715-.323 4.285-.426 8.004-.426 8.5 0 11 .583 11 3v1.188"/>
    <path d="M26.5 25.5v-1c0-.55.45-1 1-1h3v2h-4zM11 23.5h.5c.55 0 1 .45 1 1v1h-3M14.5 25.5h0a2 2 0 0 1 2-2h6a2 2 0 0 1 2 2h0M28.569 21.206 26.82 15.95c-.181-.53-.761-1.02-1.311-1.09-1.189-.15-3.37-.36-6.01-.36s-4.82.21-6.01.36c-.55.07-1.13.56-1.311 1.09l-.847 2.55"/>
    <path d="M9.5 30.5v-16h0a1.999 1.999 0 0 0 2-2V11c0-1.375-1.125-2.5-2.5-2.5H4A2.5 2.5 0 0 0 1.5 11v1.5a2 2 0 0 0 2 2h0v5l-2 11"/>
    <circle cx="6.5" cy="4" r="2.5"/>
    <path d="M9.5 13v-.319a.999.999 0 0 0-1.164-.986l-3.672.611a1 1 0 0 1-1.164-.987M7.5 30.5 6.5 19l-3 11.5M5.5 14.5h4"/>
  </g>
</svg>
